HIERARCHY
ROOT Hips
{
  OFFSET 29.6566 99.0794 -21.4601
  CHANNELS 6 Xposition Yposition Zposition Zrotation Xrotation Yrotation
  JOINT spine
  {
    OFFSET 0 8.30104 0.477352
    CHANNELS 3 Zrotation Xrotation Yrotation
    JOINT spine1
    {
      OFFSET 0 10.4565 0
      CHANNELS 3 Zrotation Xrotation Yrotation
      JOINT spine2
      {
        OFFSET 0 10.0192 0
        CHANNELS 3 Zrotation Xrotation Yrotation
        JOINT Neck
        {
          OFFSET 0 25.7235 1.22641
          CHANNELS 3 Zrotation Xrotation Yrotation
          JOINT Head
          {
            OFFSET 0 7.77175 0
            CHANNELS 3 Zrotation Xrotation Yrotation
            End Site
            {
              OFFSET 0 18.812 -6.20394
            }
          }
        }
        JOINT RightShoulder
        {
          OFFSET -4.2188 10.82 -0.587439
          CHANNELS 3 Zrotation Xrotation Yrotation
          JOINT RightArm
          {
            OFFSET 0 14.1914 0
            CHANNELS 3 Zrotation Xrotation Yrotation
            JOINT RightArmRoll
            {
              OFFSET 0 7.16408 0
              CHANNELS 3 Zrotation Xrotation Yrotation
              JOINT RightForeArm
              {
                OFFSET 0 20.8665 0
                CHANNELS 3 Zrotation Xrotation Yrotation
                JOINT RightForeArmRoll
                {
                  OFFSET 0 8.03921 0
                  CHANNELS 3 Zrotation Xrotation Yrotation
                  JOINT RightHand
                  {
                    OFFSET 0 16.133 0
                    CHANNELS 3 Zrotation Xrotation Yrotation
                    End Site
                    {
                      OFFSET 0 0 0
                    }
                  }
                }
              }
            }
          }
        }
        JOINT LeftShoulder
        {
          OFFSET 4.2188 10.82 -0.587439
          CHANNELS 3 Zrotation Xrotation Yrotation
          JOINT LeftArm
          {
            OFFSET 0 14.1914 0
            CHANNELS 3 Zrotation Xrotation Yrotation
            JOINT LeftArmRoll
            {
              OFFSET 0 7.16409 0
              CHANNELS 3 Zrotation Xrotation Yrotation
              JOINT LeftForeArm
              {
                OFFSET 0 20.8665 0
                CHANNELS 3 Zrotation Xrotation Yrotation
                JOINT LeftForeArmRoll
                {
                  OFFSET 0 8.03921 0
                  CHANNELS 3 Zrotation Xrotation Yrotation
                  JOINT LeftHand
                  {
                    OFFSET 0 16.133 0
                    CHANNELS 3 Zrotation Xrotation Yrotation
                    End Site
                    {
                      OFFSET 0 0 0
                    }
                  }
                }
              }
            }
          }
        }
      }
    }
  }
  JOINT RightUpLeg
  {
    OFFSET -7.35773 -1.34921 -1.13182
    CHANNELS 3 Zrotation Xrotation Yrotation
    JOINT RightUpLegRoll
    {
      OFFSET 0 18.9168 0
      CHANNELS 3 Zrotation Xrotation Yrotation
      JOINT RightLeg
      {
        OFFSET 0 -23.4256 0
        CHANNELS 3 Zrotation Xrotation Yrotation
        JOINT RightLegRoll
        {
          OFFSET 0 23.5023 0
          CHANNELS 3 Zrotation Xrotation Yrotation
          JOINT RightFoot
          {
            OFFSET 0 19.5617 0
            CHANNELS 3 Zrotation Xrotation Yrotation
            JOINT RightToeBase
            {
              OFFSET 0 16.3526 0
              CHANNELS 3 Zrotation Xrotation Yrotation
              End Site
              {
                OFFSET 0.00693125 7.91944 -0.912837
              }
            }
          }
        }
      }
    }
  }
  JOINT LeftUpLeg
  {
    OFFSET 7.35773 -1.34921 -1.13182
    CHANNELS 3 Zrotation Xrotation Yrotation
    JOINT LeftUpLegRoll
    {
      OFFSET 0 18.9169 0
      CHANNELS 3 Zrotation Xrotation Yrotation
      JOINT LeftLeg
      {
        OFFSET 0 23.4255 0
        CHANNELS 3 Zrotation Xrotation Yrotation
        JOINT LeftLegRoll
        {
          OFFSET 0 23.7195 0
          CHANNELS 3 Zrotation Xrotation Yrotation
          JOINT LeftFoot
          {
            OFFSET 0 19.3444 0
            CHANNELS 3 Zrotation Xrotation Yrotation
            JOINT LeftToeBase
            {
              OFFSET 0 16.3526 0
              CHANNELS 3 Zrotation Xrotation Yrotation
              End Site
              {
                OFFSET -0.0310629 7.91944 -0.912836
              }
            }
          }
        }
      }
    }
  }
}
MOTION
Frames: 5
Frame Time: 0.00208333
33.325 98.995 -8.70245 0.260179 -6.18786 2.46653 0.184175 -0.227156 0.231884 0.368036 3.54918 0.422228 0.363467 5.19422 0.416475 -3.06271 21.2153 -1.90983 2.70527 -2.20573 -2.61225 72.3421 -0.787238 -1.95762 97.8877 28.4288 23.2998 1.76241e-006 -2.25705e-006 8.57219e-007 6.72617 0.0551251 0.0667072 -5.51313e-006 -7.3641e-007 -3.058 8.02931 -4.95141 0.697668 -67.9826 4.58267 -1.21592 -99.5373 19.5395 -15.2559 1.57532e-006 1.36505e-006 -2.1468e-006 -9.0249 0.156631 0.53452 4.16551e-006 4.38248e-006 3.00202 -8.02903 -4.95146 -0.697665 174.041 -2.32875 2.06692 180 7.01519e-015 178.807 176.6 5.82445 179.663 -7.69449e-007 -5.43515e-006 0.0604232 -18.1957 67.2909 18.9451 8.13241 25.2329 -3.486 -173.05 -1.80728 -0.782424 4.54188e-006 -4.6773e-006 -1.28047 -3.05978 -8.74408 0.500973 6.61542e-008 -1.14453e-006 -0.0944532 17.7533 66.5241 -18.3781 -8.13526 25.2327 3.48721 
33.3291 98.9854 -8.72197 0.257676 -6.18273 2.47057 0.184959 -0.224977 0.231187 0.369963 3.55353 0.422025 0.365401 5.19858 0.416239 -3.07795 21.2178 -1.90703 2.7173 -2.22466 -2.61293 72.3232 -0.790327 -1.95715 97.8886 28.3837 23.3385 1.76241e-006 -2.25705e-006 8.57219e-007 6.71111 0.0551267 0.0665413 -5.51313e-006 -7.3641e-007 -3.058 8.02931 -4.95141 0.697668 -67.983 4.57843 -1.2137 -99.5185 19.493 -15.3162 1.57532e-006 1.36505e-006 -2.1468e-006 -9.00096 0.150372 0.540164 4.16551e-006 4.38248e-006 3.0027 -8.02903 -4.95146 -0.697665 174.043 -2.32006 2.06792 180 7.01519e-015 178.807 176.597 5.83694 179.663 -7.69449e-007 -5.43515e-006 0.0603601 -18.1964 67.2918 18.9459 8.13241 25.2329 -3.486 -173.045 -1.78219 -0.789929 4.54188e-006 -4.6773e-006 -1.28047 -3.06188 -8.78057 0.500254 6.61542e-008 -1.14453e-006 -0.0945403 17.7542 66.5253 -18.379 -8.13526 25.2327 3.48721 
33.3279 98.9858 -8.70286 0.255191 -6.17769 2.47469 0.185724 -0.222821 0.230439 0.371881 3.55785 0.421771 0.367327 5.20289 0.415953 -3.09319 21.2202 -1.90418 2.72933 -2.24325 -2.61356 72.3044 -0.793459 -1.9567 97.8894 28.3394 23.3775 1.76241e-006 -2.25705e-006 8.57219e-007 6.69562 0.0551285 0.0662869 -5.51313e-006 -7.3641e-007 -3.05801 8.02931 -4.95141 0.697668 -67.9835 4.57413 -1.21146 -99.4998 19.4468 -15.3775 1.57532e-006 1.36505e-006 -2.1468e-006 -8.97624 0.143885 0.545905 4.16551e-006 4.38248e-006 3.0034 -8.02903 -4.95146 -0.697665 174.045 -2.31209 2.06906 180 7.01519e-015 178.807 176.595 5.84826 179.664 -7.69449e-007 -5.43515e-006 0.0602626 -18.1969 67.2925 18.9464 8.13241 25.2329 -3.486 -173.039 -1.75707 -0.797662 4.54188e-006 -4.6773e-006 -1.28047 -3.06418 -8.81754 0.499496 6.61542e-008 -1.14453e-006 -0.0946096 17.7552 66.5267 -18.3801 -8.13526 25.2327 3.48721 
33.3267 98.9888 -8.7049 0.252719 -6.1727 2.47888 0.186476 -0.220681 0.229657 0.373793 3.56213 0.421482 0.369248 5.20717 0.415632 -3.10843 21.2225 -1.90128 2.74137 -2.26162 -2.61417 72.2857 -0.796621 -1.95627 97.8902 28.2955 23.4166 1.76241e-006 -2.25705e-006 8.57219e-007 6.67985 0.0551302 0.0659704 -5.51313e-006 -7.3641e-007 -3.05802 8.02931 -4.95141 0.697668 -67.984 4.56981 -1.2092 -99.4811 19.4008 -15.4393 1.57532e-006 1.36505e-006 -2.1468e-006 -8.95097 0.137238 0.551712 4.16551e-006 4.38248e-006 3.00411 -8.02903 -4.95146 -0.697665 174.047 -2.30462 2.07029 180 7.01519e-015 178.807 176.592 5.8588 179.665 -7.69449e-007 -5.43515e-006 0.0601411 -18.1973 67.2929 18.9468 8.13241 25.2329 -3.486 -173.033 -1.73192 -0.805553 4.54188e-006 -4.6773e-006 -1.28047 -3.06663 -8.85486 0.49871 6.61542e-008 -1.14453e-006 -0.0946665 17.7563 66.5282 -18.3812 -8.13526 25.2327 3.48721 
33.3282 98.989 -8.69566 0.250253 -6.16775 2.4831 0.18722 -0.21855 0.228856 0.375701 3.56639 0.421172 0.371165 5.21143 0.41529 -3.12367 21.2248 -1.89835 2.7534 -2.27985 -2.61476 72.2669 -0.7998 -1.95584 97.891 28.2519 23.4559 1.76241e-006 -2.25705e-006 8.57219e-007 6.6639 0.055132 0.0656185 -5.51313e-006 -7.3641e-007 -3.05803 8.02931 -4.95141 0.697668 -67.9845 4.56548 -1.20692 -99.4626 19.355 -15.5015 1.57532e-006 1.36505e-006 -2.1468e-006 -8.9254 0.1305 0.557557 4.16551e-006 4.38248e-006 3.00483 -8.02903 -4.95146 -0.697665 174.049 -2.29744 2.07157 180 7.01519e-015 178.807 176.589 5.86886 179.665 -7.69449e-007 -5.43515e-006 0.0600058 -18.1976 67.2933 18.9472 8.13241 25.2329 -3.486 -173.028 -1.70675 -0.813535 4.54188e-006 -4.6773e-006 -1.28047 -3.06915 -8.89237 0.497909 6.61542e-008 -1.14453e-006 -0.0947164 17.7575 66.5298 -18.3824 -8.13526 25.2327 3.48721 
